<svg width="131" height="253" viewBox="0 0 131 253" fill="none" xmlns="http://www.w3.org/2000/svg">
<path d="M70.8914 159.037L70.8914 67.7806C84.5155 67.1668 99.041 69.8419 111.822 64.1719C126.774 57.5456 131.778 42.7518 129.462 27.2086C127.039 10.9482 113.725 1.57245 97.9361 0.370604L65.1858 0.380304L32.4355 0.370601C16.6468 1.57245 3.33278 10.9482 0.909706 27.2086C-1.40676 42.7551 3.5977 57.5456 18.5497 64.1719C31.3338 69.8419 45.8594 67.1668 59.4803 67.7806L59.4803 159.037L10.7409 159.037L10.7409 169.081L45.3198 169.081C47.9271 169.081 53.1803 171.96 55.0994 173.811C61.7935 180.289 61.1377 193.212 53.1738 198.378C52.3112 198.937 49.0611 200.517 48.2178 200.517L15.8908 200.517L15.8908 210.888L47.5749 210.888C53.1221 210.888 58.7631 218.328 59.49 223.513C60.7597 232.572 54.5728 242.326 45 242.326L10.7409 242.326L10.7409 252.371L70.8881 252.371L70.8881 159.037L70.8914 159.037ZM119.796 33.9577C119.796 47.4947 108.811 58.4695 95.2546 58.4695C82.6804 58.4695 72.3226 49.0196 70.8914 36.8493L70.8914 31.0661C72.3258 18.8958 82.6804 9.44586 95.2546 9.44586C108.811 9.44586 119.796 20.4176 119.796 33.9577ZM10.5794 33.9577C10.5794 20.4208 21.564 9.44586 35.1203 9.44586C47.6945 9.44586 58.0523 18.8958 59.4835 31.0661L59.4835 36.8493C58.0491 49.0196 47.6945 58.4695 35.1203 58.4695C21.564 58.4695 10.5794 47.4979 10.5794 33.9577Z" fill="#212020" stroke="#212020" stroke-width="0.741176"/>
</svg>
