<svg width="252" height="164" viewBox="0 0 252 164" fill="none" xmlns="http://www.w3.org/2000/svg">
<path d="M252 163.51L-7.14724e-06 163.51L0 -1.10153e-05L252 0L252 163.51ZM112.337 68.2383C111.78 46.0507 93.7888 30.4502 71.0498 30.4502C45.1498 30.4502 26.9502 50.0503 26.9502 76.6504L26.9502 86.8603C26.9503 113.46 45.1499 133.061 71.0498 133.061C94.1498 133.061 112.35 116.96 112.35 94.21L112.35 69.2998L112.337 68.2383ZM225.037 75.4082C224.511 49.4422 207.495 30.4502 182 30.4502C158.9 30.4502 139.651 46.8999 139.65 69.2998L139.65 94.21C139.65 116.61 158.9 133.061 182 133.061C207.9 133.061 225.05 113.46 225.05 86.8604L225.05 76.6504L225.037 75.4082Z" fill="#212020"/>
</svg>
