<svg width="700" height="700" viewBox="0 0 700 700" fill="none" xmlns="http://www.w3.org/2000/svg">
<g clip-path="url(#clip0_58_19)">
<path d="M350.004 700.008C543.306 700.008 700.008 543.306 700.008 350.004C700.008 156.702 543.306 0 350.004 0C156.702 0 0 156.702 0 350.004C0 543.306 156.702 700.008 350.004 700.008Z" fill="#FEF5EC"/>
<path d="M442.391 512.621L533.164 355.403L635.135 414.275L625.424 431.092L571.272 399.827C554.676 390.242 536.271 393.884 526.942 410.047C518.623 424.462 521.95 442.391 535.923 450.464L586.145 479.463L576.306 496.492L526.084 467.493C511.891 459.301 495.286 464.853 486.967 479.267C477.637 495.422 483.308 513.835 499.904 523.419L554.056 554.684L544.344 571.501L442.374 512.629L442.391 512.621Z" fill="#212020" stroke="#212020" stroke-width="2"/>
<path d="M326.031 602.52V420.981H347.967V548.063C347.967 570.499 360.319 582.605 382.509 582.605H439.241V602.529H326.031V602.52Z" fill="#212020" stroke="#212020" stroke-width="2"/>
<path d="M148.38 572.426V390.888H216.709C253.271 390.888 285.037 412.569 285.037 455.939C285.037 499.31 254.782 522.001 214.442 522.001H170.07V572.435H148.389L148.38 572.426ZM216.964 504.344C243.687 504.344 265.377 482.408 265.377 456.44C265.377 430.472 243.696 408.027 216.964 408.027C190.232 408.027 170.571 429.963 170.571 456.44C170.571 482.918 190.486 504.344 216.964 504.344Z" fill="#212020" stroke="#212020" stroke-width="2"/>
<path d="M421.89 413.07C368.944 413.07 330.115 373.23 330.115 319.274C330.115 265.317 368.944 225.478 421.89 225.478C474.836 225.478 513.164 265.317 513.164 319.274C513.164 373.23 474.59 413.07 421.89 413.07ZM421.89 390.879C461.984 390.879 491.228 360.115 491.228 319.274C491.228 278.433 461.729 245.648 421.89 245.648C382.051 245.648 352.296 277.414 352.296 319.274C352.296 361.133 381.796 390.879 421.89 390.879Z" fill="#212020" stroke="#212020" stroke-width="2"/>
<path d="M254.146 140.299L418.324 62.8361L468.571 169.323L451.007 177.608L424.326 121.054C416.151 103.728 398.952 96.2236 382.076 104.186C367.025 111.283 359.538 127.922 366.431 142.514L391.176 194.96L373.392 203.356L348.646 150.91C341.651 136.088 324.843 131.19 309.792 138.295C292.916 146.258 287.084 164.62 295.258 181.955L321.94 238.509L304.384 246.794L254.137 140.307L254.146 140.299Z" fill="#212020" stroke="#212020" stroke-width="2"/>
<path d="M78.176 338.578L173.797 184.264L231.879 220.257C262.957 239.519 278.535 274.681 255.691 311.549C232.584 348.841 195.172 351.761 160.885 330.513L123.168 307.134L96.6057 349.996L78.176 338.578ZM172.328 316.837C195.045 330.912 225.037 323.688 238.713 301.617C252.788 278.9 245.784 249.044 223.059 234.969C200.554 221.021 172.065 229.179 158.126 251.684C144.314 273.976 149.824 302.898 172.328 316.846V316.837Z" fill="#212020" stroke="#212020" stroke-width="2"/>
<path d="M571.374 323.085C579.757 323.085 586.552 316.29 586.552 307.907C586.552 299.524 579.757 292.729 571.374 292.729C562.991 292.729 556.195 299.524 556.195 307.907C556.195 316.29 562.991 323.085 571.374 323.085Z" fill="#212020" stroke="#212020" stroke-width="2"/>
</g>
<defs>
<clipPath id="clip0_58_19">
<rect width="700" height="700" fill="white"/>
</clipPath>
</defs>
</svg>
