<svg width="601" height="508" viewBox="0 0 601 508" fill="none" xmlns="http://www.w3.org/2000/svg">
<path d="M582.56 471.525C592.213 471.525 600.562 480.135 600.562 489.527C600.561 499.441 592.213 507.79 582.56 507.79C572.906 507.79 564.558 499.441 564.558 489.527C564.558 479.874 572.646 471.786 582.56 471.525ZM87.9365 273.895C134.987 273.895 175.873 301.8 175.873 357.612C175.873 414.073 136.934 442.628 85.0156 442.628H27.9062V507.525H0V273.895H87.9365ZM229.451 437.437C229.451 466.316 245.351 481.891 273.906 481.891H346.916V507.525H201.221V273.895H229.451V437.437ZM532.408 298.88H451.936C427.275 298.88 409.104 314.78 409.104 338.792C409.104 360.208 424.354 378.055 445.121 378.055H519.754V403.365H445.121C424.03 403.365 409.104 420.238 409.104 441.654C409.104 465.666 427.275 482.54 451.936 482.54H532.408V507.525H380.873V273.895H532.408V298.88ZM88.2607 295.959C54.1897 295.959 28.5558 324.19 28.5557 358.261C28.5557 392.007 54.1896 419.914 88.2607 419.914C122.656 419.914 150.562 391.683 150.562 358.261C150.562 323.865 122.656 295.959 88.2607 295.959ZM483.16 0C550.978 8.87615e-05 600.625 51.2696 600.625 120.71C600.625 190.475 550.978 241.419 483.16 241.419C415.018 241.419 365.047 190.15 365.047 120.71C365.047 50.9451 415.018 -1.19144e-05 483.16 0ZM87.9365 3.89453C134.987 3.89454 175.873 31.8004 175.873 87.6123C175.873 144.073 136.934 172.628 85.0156 172.628H27.9062V237.525H0V3.89453H87.9365ZM352.432 28.8799H271.959C247.298 28.8799 229.127 44.7799 229.127 68.792C229.127 90.208 244.378 108.055 265.145 108.055H339.777V133.365H265.145C244.053 133.365 229.127 150.238 229.127 171.654C229.127 195.666 247.298 212.54 271.959 212.54H352.432V237.525H200.896V3.89453H352.432V28.8799ZM483.16 25.959C431.567 25.959 393.602 66.845 393.602 120.71C393.602 173.601 431.567 212.864 483.16 212.864C534.754 212.864 572.394 173.277 572.395 120.71C572.395 66.5206 534.429 25.9591 483.16 25.959ZM88.2607 25.959C54.1898 25.9591 28.5558 54.1897 28.5557 88.2607C28.5557 122.007 54.1896 149.914 88.2607 149.914C122.656 149.914 150.562 121.683 150.562 88.2607C150.562 53.8652 122.656 25.959 88.2607 25.959Z" fill="#FBF1E9"/>
</svg>
