<svg width="1734" height="367" viewBox="0 0 1734 367" fill="none" xmlns="http://www.w3.org/2000/svg">
<path d="M1503.94 360.409V5.80841H1733.94V43.731H1611.8C1574.37 43.731 1546.79 67.8634 1546.79 104.308C1546.79 136.814 1569.94 163.901 1601.46 163.901H1714.73V202.316H1601.46C1569.45 202.316 1546.79 227.926 1546.79 260.431C1546.79 296.876 1574.37 322.486 1611.8 322.486H1733.94V360.409H1503.94Z" fill="#FBF1E9"/>
<path d="M1250.97 360.409V5.80841H1293.82V254.029C1293.82 297.861 1317.95 321.501 1361.29 321.501H1472.1V360.409H1250.97Z" fill="#FBF1E9"/>
<path d="M945.562 360.409V5.80841H1079.03C1150.44 5.80841 1212.5 48.1635 1212.5 132.874C1212.5 218.569 1153.4 261.909 1074.6 261.909H987.917V360.409H945.562ZM1079.52 227.434C1131.73 227.434 1174.08 184.586 1174.08 133.859C1174.08 81.6535 1131.73 39.2984 1079.52 39.2984C1027.81 39.2984 988.902 82.146 988.902 133.859C988.902 185.079 1027.81 227.434 1079.52 227.434Z" fill="#FBF1E9"/>
<path d="M733.27 366.42C629.845 366.42 554 288.605 554 183.21C554 77.3226 629.845 6.10352e-05 733.27 6.10352e-05C836.203 6.10352e-05 911.555 77.8152 911.555 183.21C911.555 289.098 836.203 366.42 733.27 366.42ZM733.27 323.08C811.578 323.08 868.708 262.995 868.708 183.21C868.708 100.963 811.085 39.4001 733.27 39.4001C654.963 39.4001 597.34 101.455 597.34 183.21C597.34 263.488 654.963 323.08 733.27 323.08Z" fill="#FBF1E9"/>
<path d="M304.916 360.409V5.80841H534.913V43.731H412.773C375.343 43.731 347.763 67.8634 347.763 104.308C347.763 136.814 370.911 163.901 402.431 163.901H515.706V202.316H402.431C370.418 202.316 347.763 227.926 347.763 260.431C347.763 296.876 375.343 322.486 412.773 322.486H534.913V360.409H304.916Z" fill="#FBF1E9"/>
<path d="M0 360.409V5.80841H133.468C204.88 5.80841 266.935 48.1635 266.935 132.874C266.935 218.569 207.835 261.909 129.035 261.909H42.355V360.409H0ZM133.96 227.434C186.165 227.434 228.52 184.586 228.52 133.859C228.52 81.6535 186.165 39.2984 133.96 39.2984C82.2476 39.2984 43.34 82.146 43.34 133.859C43.34 185.079 82.2476 227.434 133.96 227.434Z" fill="#FBF1E9"/>
</svg>
