<svg width="676" height="439" viewBox="0 0 676 439" fill="none" xmlns="http://www.w3.org/2000/svg">
<path d="M675.71 438.28V219.14V0H72.26H0V438.27H72.27H675.72L675.71 438.28ZM187.7 356.63C118.32 356.63 72.35 304.17 72.27 232.95V205.53C72.27 134.21 121.07 81.65 190.52 81.65C252.41 81.65 301.17 124.75 301.26 185.66V252.45C301.26 312.51 249.64 356.62 187.7 356.62V356.63ZM485.2 356.63C423.31 356.63 374.54 313.53 374.46 252.62V185.83C374.46 125.77 426.08 81.66 488.02 81.66C557.4 81.66 603.37 134.12 603.45 205.34V232.76C603.45 304.08 554.65 356.64 485.2 356.64V356.63Z" fill="white"/>
</svg>
