<svg width="164" height="252" viewBox="0 0 164 252" fill="none" xmlns="http://www.w3.org/2000/svg">
<path d="M163.51 0V252H0V0H163.51ZM68.2383 139.663C46.0507 140.22 30.4502 158.211 30.4502 180.95C30.4502 206.85 50.0503 225.05 76.6504 225.05H86.8604C113.46 225.05 133.061 206.85 133.061 180.95C133.061 157.85 116.96 139.65 94.21 139.65H69.2998L68.2383 139.663ZM75.4082 26.9629C49.4422 27.4885 30.4502 44.5047 30.4502 70C30.4502 93.0999 46.8999 112.349 69.2998 112.35H94.21C116.61 112.35 133.061 93.1 133.061 70C133.061 44.1001 113.46 26.9503 86.8604 26.9502H76.6504L75.4082 26.9629Z" fill="#212020"/>
</svg>
