<svg width="691" height="408" viewBox="0 0 691 408" fill="none" xmlns="http://www.w3.org/2000/svg">
<path d="M540.71 342.54V211.62C540.79 208.95 540.84 206.26 540.84 203.57V0H0V64.6001H150.23V195.51C150.15 198.19 150.1 200.87 150.1 203.56V407.13H690.94V342.53H540.71V342.54ZM202.81 204.32C202.81 125.45 267.41 66.1101 345.53 66.1101C400.66 66.1101 449.18 95.11 473.4 139.5C482.8 158.62 488.13 180.11 488.13 202.82C488.13 281.69 423.53 341.03 345.41 341.03C290.28 341.03 241.76 312.03 217.54 267.64C208.14 248.52 202.82 227.03 202.82 204.32H202.81Z" fill="white"/>
</svg>
