<svg width="89" height="46" viewBox="0 0 89 46" fill="none" xmlns="http://www.w3.org/2000/svg">
<path d="M88.9971 42.1173L85.4494 42.1173L85.4494 30.0187C85.4494 26.6382 82.005 24.4536 78.8061 24.9014C76.9749 25.1583 74.3475 27.1497 74.3475 29.1093L74.3475 40.2986L70.6851 40.2986L70.6851 28.882C70.6851 28.5842 70.1274 27.4362 69.9301 27.1315C68.1058 24.3194 63.5415 24.0876 61.2537 26.4518C60.5997 27.1293 59.5831 28.9843 59.5831 29.905L59.5831 42.1173L56.0355 42.1173L56.0355 20.8754L88.9971 20.8754L88.9971 42.1173Z" fill="#17120F"/>
<path d="M23.8075 20.8944L32.9616 20.8944L32.9616 24.9044L0.00458851 24.9044L1.61939e-07 11.3245C0.424438 5.74849 3.73505 1.04606 9.47758 0.19086C14.9677 -0.627652 20.1918 1.14006 22.5319 6.42026C24.5371 10.9416 23.5873 16.0796 23.8075 20.8967L23.8075 20.8944ZM11.8613 3.60477C7.08008 3.60477 3.20508 7.4841 3.20508 12.2714C3.20508 17.0586 7.08237 20.938 11.8613 20.938C16.6403 20.938 20.5175 17.0586 20.5175 12.2714C20.5175 7.4841 16.6425 3.60477 11.8613 3.60477Z" fill="#17120F"/>
<path d="M23.8075 24.8854L32.9616 24.8854L32.9616 20.8754L0.00458851 20.8754L-1.34914e-06 34.4553C0.424436 40.0313 3.73505 44.7337 9.47758 45.5889C14.9677 46.4074 20.1918 44.6397 22.5319 39.3595C24.5371 34.8382 23.5873 29.7002 23.8075 24.8831L23.8075 24.8854ZM11.8613 42.175C7.08008 42.175 3.20508 38.2957 3.20508 33.5084C3.20508 28.7212 7.08237 24.8418 11.8613 24.8418C16.6403 24.8418 20.5175 28.7212 20.5175 33.5084C20.5175 38.2957 16.6425 42.175 11.8613 42.175Z" fill="#17120F"/>
<rect x="60.4297" y="20.8754" width="4.02864" height="40.2864" transform="rotate(90 60.4297 20.8754)" fill="#17120F"/>
</svg>
