<svg width="601" height="513" viewBox="0 0 601 513" fill="none" xmlns="http://www.w3.org/2000/svg">
<path d="M380.872 507.525L380.872 273.894L532.408 273.894L532.408 298.879L451.935 298.879C427.274 298.879 409.103 314.779 409.103 338.791C409.103 360.208 424.354 378.054 445.121 378.054L519.753 378.054L519.753 403.364L445.121 403.364C424.029 403.364 409.103 420.238 409.103 441.654C409.103 465.666 427.274 482.539 451.935 482.539L532.408 482.539L532.408 507.525L380.872 507.525Z" fill="#F4E4D5"/>
<path d="M201.22 507.525L201.22 273.894L229.451 273.894L229.451 437.436C229.451 466.315 245.351 481.891 273.905 481.891L346.915 481.891L346.915 507.525L201.22 507.525Z" fill="#F4E4D5"/>
<path d="M-4.08494e-05 507.525L0 273.894L87.9362 273.894C134.987 273.894 175.872 301.8 175.872 357.612C175.872 414.073 136.934 442.627 85.0158 442.627L27.9059 442.627L27.9059 507.525L-4.08494e-05 507.525ZM88.2606 419.913C122.656 419.913 150.562 391.683 150.562 358.261C150.562 323.865 122.656 295.959 88.2607 295.959C54.1894 295.959 28.5549 324.189 28.5549 358.261C28.5549 392.007 54.1894 419.913 88.2606 419.913Z" fill="#F4E4D5"/>
<path d="M483.16 241.419C415.017 241.419 365.046 190.15 365.046 120.709C365.046 50.9446 415.017 8.73723e-06 483.16 2.06516e-05C550.978 3.25093e-05 600.624 51.2691 600.624 120.709C600.624 190.474 550.978 241.419 483.16 241.419ZM483.16 212.864C534.753 212.864 572.394 173.276 572.394 120.709C572.394 66.52 534.429 25.9591 483.16 25.9591C431.566 25.959 393.601 66.8445 393.601 120.709C393.601 173.601 431.566 212.864 483.16 212.864Z" fill="#F4E4D5"/>
<path d="M200.896 237.525L200.896 3.89383L352.432 3.89386L352.432 28.8794L271.959 28.8794C247.298 28.8794 229.126 44.7793 229.126 68.7914C229.126 90.2076 244.377 108.054 265.145 108.054L339.777 108.054L339.777 133.364L265.145 133.364C244.053 133.364 229.126 150.238 229.126 171.654C229.126 195.666 247.298 212.539 271.959 212.539L352.432 212.539L352.432 237.525L200.896 237.525Z" fill="#F4E4D5"/>
<path d="M-4.08494e-05 237.525L0 3.8938L87.9362 3.89381C134.987 3.89382 175.872 31.7998 175.872 87.6117C175.872 144.073 136.934 172.627 85.0158 172.627L27.9059 172.627L27.9059 237.525L-4.08494e-05 237.525ZM88.2606 149.913C122.656 149.913 150.562 121.683 150.562 88.2606C150.562 53.8649 122.656 25.959 88.2607 25.959C54.1894 25.959 28.5549 54.1894 28.5549 88.2606C28.5549 122.007 54.1894 149.913 88.2606 149.913Z" fill="#F4E4D5"/>
<path d="M579.559 512.419C569.906 512.419 561.557 504.07 561.557 494.156C561.557 484.503 569.645 476.415 579.559 476.154C589.212 476.154 597.561 484.764 597.561 494.156C597.561 504.07 589.212 512.419 579.559 512.419Z" fill="#F4E4D5"/>
</svg>
